<?xml version="1.0" encoding="UTF-8"?>
<svg width="56px" height="56px" viewBox="0 0 56 56" version="1.1" xmlns="http://www.w3.org/2000/svg" xmlns:xlink="http://www.w3.org/1999/xlink">
    <!-- Generator: Sketch 55.2 (78181) - https://sketchapp.com -->
    <title>weixin@1x</title>
    <desc>Created with Sketch.</desc>
    <g id="页面1" stroke="none" stroke-width="1" fill="none" fill-rule="evenodd">
        <g id="注册独立复制-3" transform="translate(-1234.000000, -740.000000)" fill="#7ED321">
            <g id="weixin" transform="translate(1234.000000, 740.000000)">
                <path d="M28.000184,0 C12.5383458,0 0,12.5449648 0,27.9848704 C0,43.4247761 12.5383458,56 28.000184,56 C43.4620221,56 56,43.4549616 56,27.9848704 C56,12.5147792 43.4620221,0 28.000184,0 Z M28.000184,54.8539064 C13.1712418,54.8539064 1.14540856,42.8217278 1.14540856,27.9848704 C1.14540856,13.1480866 13.1712418,1.14601994 28.000184,1.14601994 C42.8290525,1.14601994 54.8548858,13.1782722 54.8548858,28.015056 C54.8548858,42.8519134 42.8290525,54.8539064 28.000184,54.8539064 Z" id="Fill-1"></path>
                <path d="M36.5,23 C30.0541542,23 25,27.2013967 25,32.3523775 C25,37.503569 30.0841514,41.7049657 36.5,41.7049657 C37.8619899,41.7049657 39.1936132,41.3885314 40.5553075,41.071816 L44.2778385,43 L43.2489206,39.7769925 C45.972531,37.8488085 48,35.2589507 48,32.3811826 C47.9697073,27.2013967 42.5830721,23 36.5,23 Z M32.7474719,30.7408386 C32.0816233,30.7408386 31.385482,30.1079699 31.385482,29.4460151 C31.385482,28.8129356 32.0513306,28.1509808 32.7474719,28.1509808 C33.7763897,28.1509808 34.4421644,28.7841305 34.4421644,29.4460151 C34.4421644,30.1079699 33.7763897,30.7408386 32.7474719,30.7408386 Z M40.1922383,30.7408386 C39.5263897,30.7408386 38.8605411,30.1079699 38.8605411,29.4460151 C38.8605411,28.8129356 39.5263897,28.1509808 40.1922383,28.1509808 C41.2210822,28.1509808 41.8869308,28.7841305 41.8869308,29.4460151 C41.8869308,30.1079699 41.2210822,30.7408386 40.1922383,30.7408386 Z" id="Fill-2"></path>
                <path d="M34.7074031,21.5163922 C35.1581127,21.5163922 35.579093,21.547022 36,21.6083564 C34.8274944,16.100439 29.0545946,12 22.4400277,12 C15.0436192,12 9,17.1408076 9,23.6280581 C9,27.3917183 11.0146131,30.4824185 14.3820891,32.8689312 L13.0289326,37 L17.7194688,34.6131885 C19.40317,34.9499673 20.7563265,35.2863726 22.4400277,35.2863726 C22.8610081,35.2863726 23.2819151,35.2557427 23.7028954,35.2254117 C23.4321761,34.3073383 23.2819151,33.3586351 23.2819151,32.3488963 C23.2819151,26.3819795 28.3331657,21.5163922 34.7074031,21.5163922 Z M27.4912783,17.8140664 C28.5135229,17.8140664 29.1749796,18.4869517 29.1749796,19.5276192 C29.1749796,20.5679878 28.5135229,21.2412466 27.4912783,21.2412466 C26.4690338,21.2412466 25.4766652,20.5679878 25.4766652,19.5276192 C25.4766652,18.4869517 26.4690338,17.8140664 27.4912783,17.8140664 Z M18.0801832,21.2412466 C17.0880349,21.2412466 16.0658637,20.5679878 16.0658637,19.5276192 C16.0658637,18.4869517 17.0880349,17.8140664 18.0801832,17.8140664 C19.1024278,17.8140664 19.7638845,18.4869517 19.7638845,19.5276192 C19.7638845,20.5373579 19.0725518,21.2412466 18.0801832,21.2412466 Z" id="Fill-3"></path>
            </g>
        </g>
    </g>
</svg>